<svg width="22" height="23" viewBox="0 0 22 23" fill="none" xmlns="http://www.w3.org/2000/svg">
<path d="M5.40625 17.5938C6.07935 17.5938 6.625 17.0481 6.625 16.375C6.625 15.7019 6.07935 15.1562 5.40625 15.1562C4.73315 15.1562 4.1875 15.7019 4.1875 16.375C4.1875 17.0481 4.73315 17.5938 5.40625 17.5938Z" fill="#707070"/>
<path d="M9.0625 17.5938C9.7356 17.5938 10.2812 17.0481 10.2812 16.375C10.2812 15.7019 9.7356 15.1562 9.0625 15.1562C8.3894 15.1562 7.84375 15.7019 7.84375 16.375C7.84375 17.0481 8.3894 17.5938 9.0625 17.5938Z" fill="#707070"/>
<path d="M12.7188 17.5938C13.3918 17.5938 13.9375 17.0481 13.9375 16.375C13.9375 15.7019 13.3918 15.1562 12.7188 15.1562C12.0457 15.1562 11.5 15.7019 11.5 16.375C11.5 17.0481 12.0457 17.5938 12.7188 17.5938Z" fill="#707070"/>
<path d="M16.9844 17.5938C17.3209 17.5938 17.5938 17.0481 17.5938 16.375C17.5938 15.7019 17.3209 15.1562 16.9844 15.1562C16.6478 15.1562 16.375 15.7019 16.375 16.375C16.375 17.0481 16.6478 17.5938 16.9844 17.5938Z" fill="#707070"/>
<path d="M12.7188 13.9375C13.3918 13.9375 13.9375 13.3918 13.9375 12.7187C13.9375 12.0457 13.3918 11.5 12.7188 11.5C12.0457 11.5 11.5 12.0457 11.5 12.7187C11.5 13.3918 12.0457 13.9375 12.7188 13.9375Z" fill="#707070"/>
<path d="M18.0313 2.64835H17.903C17.9026 1.47865 16.9794 0.53125 15.8405 0.53125C14.7015 0.53125 13.7779 1.47865 13.7779 2.64835H8.34652C8.34611 1.47865 7.42292 0.53125 6.284 0.53125C5.14508 0.53125 4.22148 1.47865 4.22148 2.64835H3.74796C1.96968 2.64835 0.53125 4.12978 0.53125 5.95127V5.9534V19.1658C0.53125 20.9895 1.97003 22.4688 3.74796 22.4688H18.0313C19.8075 22.4688 21.25 20.9895 21.25 19.1658V5.95335V5.95122C21.25 4.12978 19.8075 2.64835 18.0313 2.64835ZM19.0897 19.1052C19.0897 19.649 18.6591 20.0933 18.1282 20.0933H3.78673C3.25587 20.0933 2.82355 19.649 2.82355 19.1052V10.5746H19.0897V19.1052Z" fill="#707070"/>
<path d="M16.9844 13.9375C17.3209 13.9375 17.5938 13.3918 17.5938 12.7187C17.5938 12.0457 17.3209 11.5 16.9844 11.5C16.6478 11.5 16.375 12.0457 16.375 12.7187C16.375 13.3918 16.6478 13.9375 16.9844 13.9375Z" fill="#707070"/>
</svg>
