<svg width="15" height="13" viewBox="0 0 15 13" fill="none" xmlns="http://www.w3.org/2000/svg">
<path d="M1.06489 0C0.770924 0 0.519961 0.104196 0.311948 0.311948C0.104051 0.519961 0 0.770953 0 1.06489C0 1.25898 0.0485142 1.43649 0.14563 1.59727C0.2426 1.75811 0.371592 1.88564 0.532374 1.97996V12.5118C0.532374 12.5894 0.557287 12.6533 0.607258 12.7031C0.657142 12.7531 0.720866 12.7779 0.798605 12.7779H1.33098C1.40866 12.7779 1.47247 12.753 1.52233 12.7031C1.57224 12.6533 1.59715 12.5894 1.59715 12.5118V1.97996C1.75799 1.88564 1.88693 1.75811 1.98395 1.59727C2.08104 1.43649 2.12953 1.25889 2.12953 1.06489C2.12953 0.77104 2.02559 0.520078 1.81772 0.311948C1.60974 0.104109 1.35875 0 1.06489 0Z" fill="#019B92"/>
<path d="M14.1174 1.13949C13.9454 1.03973 13.7736 1.03425 13.6014 1.12294C13.5516 1.15077 13.4656 1.19783 13.3436 1.26438C12.301 1.8855 11.4415 2.19611 10.7648 2.19611C10.4819 2.19611 10.235 2.1434 10.0243 2.03807C9.40333 1.73306 8.82369 1.49453 8.28573 1.32256C7.74776 1.15077 7.16821 1.06475 6.54711 1.06475C6.14227 1.06475 5.7124 1.11746 5.25771 1.22286C4.80293 1.32819 4.37997 1.46546 3.989 1.63451C3.59806 1.80369 3.28183 1.94786 3.04069 2.06712C2.79928 2.18638 2.58162 2.30412 2.38759 2.42065C2.21565 2.53154 2.12964 2.68405 2.12964 2.87819V9.05077C2.12964 9.25596 2.21839 9.41132 2.39584 9.51663C2.48456 9.56109 2.57332 9.58312 2.66207 9.58312C2.76184 9.58312 2.85342 9.5582 2.93652 9.50844C3.46336 9.18676 4.09693 8.90377 4.83731 8.65977C5.57779 8.41578 6.23085 8.29375 6.79653 8.29375C7.11806 8.29375 7.43435 8.33253 7.74487 8.41021C8.05536 8.4878 8.30784 8.56837 8.50187 8.65141C8.69581 8.73466 8.97031 8.8677 9.32541 9.05077L9.55834 9.16724C9.94643 9.36147 10.3846 9.45858 10.8725 9.45858C11.7101 9.45858 12.7332 9.1369 13.9422 8.49357C13.9811 8.47143 14.0282 8.44652 14.0837 8.41869C14.2777 8.31886 14.3749 8.16091 14.3749 7.94456V1.59704C14.3751 1.40296 14.2891 1.25051 14.1174 1.13949ZM13.3101 7.6285C12.3507 8.13862 11.5382 8.39369 10.8727 8.39381C10.5566 8.39381 10.2766 8.33276 10.0324 8.21082L9.7996 8.09439C9.49447 7.94459 9.26562 7.83512 9.11326 7.76571C8.96082 7.69631 8.74712 7.61038 8.47282 7.50785C8.1982 7.40525 7.92649 7.33317 7.65758 7.29156C7.38866 7.24998 7.1016 7.22923 6.7965 7.22923C5.75378 7.22923 4.55325 7.54255 3.19439 8.16936V3.18615C4.47003 2.48172 5.58758 2.12956 6.54697 2.12956C7.06833 2.12956 7.56186 2.20584 8.0276 2.35838C8.49336 2.51083 9.00371 2.72304 9.5584 2.99469C9.90759 3.17216 10.3097 3.26092 10.7645 3.26092C11.5243 3.26092 12.3728 3.0085 13.3101 2.50389V7.6285H13.3101Z" fill="#019B92"/>
</svg>
