<svg width="19" height="19" viewBox="0 0 19 19" fill="none" xmlns="http://www.w3.org/2000/svg">
<path d="M9.49504 1.0003C7.54461 0.978175 5.70092 2.17433 5.06965 3.79741C4.62841 4.93174 4.87637 6.02572 5.30003 7.33056C5.92154 9.24519 7.05392 12.0247 9.23017 15.2175C9.40002 15.4674 9.76967 15.4648 9.93562 15.2123C11.5561 12.7452 12.5479 10.5533 13.1597 8.96926C14.3831 5.8012 14.199 4.7788 13.979 4.156C13.3959 2.50754 11.6335 1.02438 9.49504 1.0003Z" stroke="#019B92" stroke-miterlimit="10"/>
<path d="M11.8038 11.5739C15.3786 11.9871 18 13.3388 18 14.943C18 16.8752 14.1942 18.4417 9.5 18.4417C4.80584 18.4417 1 16.8752 1 14.943C1 13.3356 3.63376 11.9813 7.22288 11.5713" stroke="#019B92" stroke-miterlimit="10"/>
<path d="M9.48779 7.6893C10.5413 7.6893 11.3953 6.8353 11.3953 5.78183C11.3953 4.72836 10.5413 3.87436 9.48779 3.87436C8.43433 3.87436 7.58032 4.72836 7.58032 5.78183C7.58032 6.8353 8.43433 7.6893 9.48779 7.6893Z" stroke="#019B92" stroke-miterlimit="10"/>
</svg>
