<svg width="18" height="29" viewBox="0 0 18 29" fill="none" xmlns="http://www.w3.org/2000/svg">
<path d="M9.2402 1.00056C5.78991 0.959676 2.52842 3.16971 1.41171 6.16854C0.631162 8.26435 1.06979 10.2856 1.81925 12.6964C2.9187 16.234 4.92187 21.3695 8.77164 27.2685C9.07212 27.7302 9.72603 27.7254 10.0196 27.2589C12.8862 22.7005 14.6407 18.6508 15.7229 15.7241C17.8872 9.87078 17.5614 7.98178 17.1723 6.83107C16.1408 3.78535 13.0232 1.04505 9.2402 1.00056Z" stroke="#019B92" stroke-miterlimit="10"/>
<path d="M9.22735 13.3591C11.0909 13.3591 12.6017 11.7812 12.6017 9.83481C12.6017 7.88841 11.0909 6.31055 9.22735 6.31055C7.36376 6.31055 5.85303 7.88841 5.85303 9.83481C5.85303 11.7812 7.36376 13.3591 9.22735 13.3591Z" stroke="#019B92" stroke-miterlimit="10"/>
</svg>
