<svg width="15" height="15" viewBox="0 0 15 15" fill="none" xmlns="http://www.w3.org/2000/svg">
<path d="M7.5 0C3.35476 0 0 3.3544 0 7.5C0 11.6452 3.3544 15 7.5 15C11.6452 15 15 11.6456 15 7.5C15 3.35478 11.6456 0 7.5 0ZM7.5 14C3.91591 14 0.99999 11.0841 0.99999 7.5C0.99999 3.91588 3.91591 0.99999 7.5 0.99999C11.0841 0.99999 14 3.91591 14 7.5C14 11.0841 11.0841 14 7.5 14Z" fill="#019B92"/>
<path d="M9.04611 7.35039H7.41164V4.56555C7.41164 4.28942 7.18778 4.06554 6.91163 4.06554C6.63548 4.06554 6.41162 4.28939 6.41162 4.56555V7.85037C6.41162 8.12649 6.63548 8.35038 6.91163 8.35038H9.04608C9.32221 8.35038 9.54609 8.12652 9.54609 7.85037C9.54609 7.57422 9.32224 7.35039 9.04611 7.35039Z" fill="#019B92"/>
</svg>
